<svg width="75" height="35" viewBox="0 0 75 35" fill="none" xmlns="http://www.w3.org/2000/svg">
<rect width="75" height="35" rx="5" fill="#956EFF"/>
<path d="M36.0355 23.2656C36.0355 23.3698 36.0095 23.4531 35.9574 23.5156C35.9105 23.5781 35.8272 23.6094 35.7074 23.6094C35.6449 23.6094 35.5798 23.6016 35.5121 23.5859C35.4444 23.5755 35.3793 23.5573 35.3168 23.5312C35.1866 23.4948 35.0824 23.4609 35.0043 23.4297C34.9314 23.3984 34.8741 23.3568 34.8324 23.3047C34.7959 23.2578 34.7725 23.1953 34.7621 23.1172C34.7517 23.0391 34.7439 22.9323 34.7386 22.7969C34.697 21.7292 34.6501 20.6719 34.598 19.625C34.5511 18.5729 34.473 17.5156 34.3636 16.4531C34.2907 16.8125 34.2204 17.1719 34.1527 17.5312C34.085 17.8906 34.0147 18.2552 33.9418 18.625C33.8689 19.0104 33.7985 19.4036 33.7308 19.8047C33.6683 20.2057 33.5668 20.5938 33.4261 20.9688C33.3689 21.1198 33.2985 21.2396 33.2152 21.3281C33.1319 21.4115 33.0043 21.4531 32.8324 21.4531C32.7074 21.4531 32.6058 21.4323 32.5277 21.3906C32.4496 21.3438 32.3741 21.276 32.3011 21.1875C32.2334 21.1146 32.1605 20.974 32.0824 20.7656C32.0043 20.5573 31.9209 20.3151 31.8324 20.0391C31.7491 19.7578 31.6657 19.4583 31.5824 19.1406C31.4991 18.8229 31.4209 18.5182 31.348 18.2266C31.2751 17.9297 31.21 17.6589 31.1527 17.4141C31.0954 17.1693 31.0511 16.9844 31.0199 16.8594V17.9219C31.0199 18.6146 31.0329 19.3047 31.059 19.9922C31.085 20.6797 31.1293 21.3646 31.1918 22.0469C31.2074 22.1979 31.2282 22.349 31.2543 22.5C31.2855 22.651 31.3011 22.8021 31.3011 22.9531C31.3011 23.0885 31.2543 23.1771 31.1605 23.2188C31.072 23.2604 30.973 23.2812 30.8636 23.2812C30.5668 23.2812 30.3376 23.2188 30.1761 23.0938C30.0199 22.9635 29.9418 22.7448 29.9418 22.4375C29.9418 21.8073 29.9261 21.1823 29.8949 20.5625C29.8636 19.9427 29.848 19.3177 29.848 18.6875C29.848 18.599 29.848 18.4453 29.848 18.2266C29.8532 18.0078 29.8584 17.75 29.8636 17.4531C29.8689 17.151 29.8741 16.8255 29.8793 16.4766C29.8897 16.1224 29.9001 15.7656 29.9105 15.4062C29.9209 15.0469 29.9314 14.6979 29.9418 14.3594C29.9522 14.0156 29.9626 13.7083 29.973 13.4375C29.9834 13.1667 29.9939 12.9427 30.0043 12.7656C30.0199 12.5833 30.0355 12.474 30.0511 12.4375C30.0772 12.3646 30.1058 12.3177 30.1371 12.2969C30.1735 12.276 30.2282 12.2656 30.3011 12.2656C30.4991 12.2656 30.6631 12.3099 30.7933 12.3984C30.9288 12.4818 31.0199 12.625 31.0668 12.8281C31.1397 12.9375 31.223 13.138 31.3168 13.4297C31.4105 13.7161 31.5095 14.0521 31.6136 14.4375C31.7178 14.8229 31.822 15.2396 31.9261 15.6875C32.0355 16.1302 32.1371 16.5573 32.2308 16.9688C32.3298 17.3802 32.4183 17.7578 32.4965 18.1016C32.5798 18.4453 32.6449 18.7083 32.6918 18.8906C32.8428 17.9948 32.9965 17.1042 33.1527 16.2188C33.309 15.3333 33.4574 14.4427 33.598 13.5469C33.6241 13.3958 33.6501 13.2474 33.6761 13.1016C33.7074 12.9557 33.723 12.8073 33.723 12.6562C33.723 12.5625 33.71 12.4766 33.684 12.3984C33.6579 12.3151 33.6449 12.2292 33.6449 12.1406C33.6449 12.0312 33.6788 11.9661 33.7465 11.9453C33.8194 11.9193 33.9001 11.9062 33.9886 11.9062C34.072 11.9062 34.1709 11.9193 34.2855 11.9453C34.4001 11.9714 34.5095 12.0104 34.6136 12.0625C34.723 12.1146 34.8142 12.1797 34.8871 12.2578C34.9652 12.3359 35.0043 12.4271 35.0043 12.5312C35.0043 12.7135 34.9886 12.9062 34.9574 13.1094C35.1449 13.9896 35.3011 14.8724 35.4261 15.7578C35.5511 16.638 35.6449 17.526 35.7074 18.4219C35.7699 19.1927 35.8194 19.9583 35.8558 20.7188C35.8975 21.4792 35.947 22.2396 36.0043 23C36.0147 23.0469 36.0225 23.0911 36.0277 23.1328C36.0329 23.1745 36.0355 23.2188 36.0355 23.2656ZM40.8871 12.0469C40.8871 12.1562 40.8532 12.3568 40.7855 12.6484C40.7178 12.9349 40.6319 13.2708 40.5277 13.6562C40.4235 14.0365 40.3064 14.4427 40.1761 14.875C40.0459 15.3021 39.9183 15.7135 39.7933 16.1094C39.6683 16.5 39.5538 16.849 39.4496 17.1562C39.3454 17.4635 39.2673 17.6875 39.2152 17.8281C39.2725 18.2917 39.3116 18.7526 39.3324 19.2109C39.3532 19.6693 39.3767 20.1302 39.4027 20.5938C39.4288 20.9844 39.4522 21.3776 39.473 21.7734C39.4991 22.1693 39.5121 22.5625 39.5121 22.9531C39.5121 23.0729 39.4808 23.1667 39.4183 23.2344C39.361 23.2969 39.2725 23.3281 39.1527 23.3281C39.1058 23.3281 39.0433 23.3203 38.9652 23.3047C38.8871 23.2943 38.8064 23.276 38.723 23.25C38.6449 23.2292 38.5694 23.2031 38.4965 23.1719C38.4288 23.1406 38.3819 23.1094 38.3558 23.0781C38.2933 23.0052 38.2543 22.9375 38.2386 22.875C38.223 22.8073 38.2152 22.7292 38.2152 22.6406C38.2152 21.8333 38.2074 21.0312 38.1918 20.2344C38.1761 19.4375 38.1683 18.6354 38.1683 17.8281L38.1058 17.7656C38.0746 17.7188 38.0381 17.6536 37.9965 17.5703C37.96 17.4818 37.9209 17.3906 37.8793 17.2969C37.8428 17.2031 37.809 17.112 37.7777 17.0234C37.7465 16.9349 37.7204 16.8646 37.6996 16.8125C37.5277 16.3333 37.3663 15.8542 37.2152 15.375C37.0642 14.8958 36.9027 14.4167 36.7308 13.9375C36.7048 13.8542 36.6631 13.7422 36.6058 13.6016C36.5485 13.4557 36.4913 13.3047 36.434 13.1484C36.3767 12.9922 36.3272 12.8464 36.2855 12.7109C36.2386 12.5703 36.2152 12.4635 36.2152 12.3906C36.2152 12.3333 36.2308 12.2865 36.2621 12.25C36.2933 12.2135 36.3324 12.1875 36.3793 12.1719C36.4261 12.151 36.4756 12.138 36.5277 12.1328C36.5798 12.1276 36.6267 12.125 36.6683 12.125C36.8038 12.125 36.9288 12.1328 37.0433 12.1484C37.1631 12.1589 37.2829 12.2031 37.4027 12.2812C37.434 12.3021 37.4834 12.3984 37.5511 12.5703C37.6189 12.7422 37.6944 12.9557 37.7777 13.2109C37.861 13.4661 37.947 13.7422 38.0355 14.0391C38.1293 14.3359 38.2152 14.6224 38.2933 14.8984C38.3715 15.1745 38.4418 15.4193 38.5043 15.6328C38.5668 15.8464 38.611 15.9948 38.6371 16.0781C38.809 15.4115 38.9808 14.75 39.1527 14.0938C39.3298 13.4375 39.4808 12.7708 39.6058 12.0938C39.6163 12.0312 39.6267 11.9635 39.6371 11.8906C39.6527 11.8125 39.6709 11.7422 39.6918 11.6797C39.7178 11.6172 39.7543 11.5651 39.8011 11.5234C39.848 11.4766 39.9131 11.4531 39.9965 11.4531C40.0642 11.4531 40.1475 11.4688 40.2465 11.5C40.3506 11.5312 40.4496 11.5755 40.5433 11.6328C40.6371 11.6849 40.7178 11.7474 40.7855 11.8203C40.8532 11.888 40.8871 11.9635 40.8871 12.0469ZM49.1293 20.1875C49.1293 20.7969 49.0303 21.3281 48.8324 21.7812C48.6397 22.2344 48.3689 22.612 48.0199 22.9141C47.6709 23.2161 47.2543 23.4401 46.7699 23.5859C46.2907 23.737 45.7647 23.8125 45.1918 23.8125H44.9261C44.8741 23.8125 44.7959 23.8099 44.6918 23.8047C44.5876 23.8047 44.4808 23.7943 44.3715 23.7734C44.2673 23.7578 44.1735 23.7292 44.0902 23.6875C44.0121 23.6458 43.973 23.5885 43.973 23.5156C43.973 23.4323 43.9913 23.349 44.0277 23.2656C44.0694 23.1875 44.1215 23.1172 44.184 23.0547C44.2465 22.987 44.3168 22.9323 44.3949 22.8906C44.473 22.8438 44.5511 22.8125 44.6293 22.7969C44.5876 22.7448 44.5564 22.6745 44.5355 22.5859C44.5147 22.4974 44.4965 22.4036 44.4808 22.3047C44.4652 22.2057 44.4522 22.1094 44.4418 22.0156C44.4366 21.9167 44.4314 21.8333 44.4261 21.7656C44.3324 20.9583 44.2517 20.1536 44.184 19.3516C44.1163 18.5495 44.0824 17.7396 44.0824 16.9219C44.0824 16.401 44.0902 15.8854 44.1058 15.375C44.1215 14.8646 44.1345 14.349 44.1449 13.8281C44.1553 13.6146 44.1579 13.4036 44.1527 13.1953C44.1527 12.987 44.1605 12.776 44.1761 12.5625C44.1449 12.5729 44.111 12.5781 44.0746 12.5781C44.0381 12.5781 43.9991 12.5781 43.9574 12.5781C43.8793 12.5781 43.8011 12.5651 43.723 12.5391C43.6501 12.5078 43.6136 12.4375 43.6136 12.3281C43.6136 12.1927 43.6423 12.0833 43.6996 12C43.7569 11.9167 43.8298 11.8542 43.9183 11.8125C44.0069 11.7656 44.1058 11.737 44.2152 11.7266C44.3298 11.7109 44.4418 11.7031 44.5511 11.7031C45.0511 11.7031 45.5355 11.7656 46.0043 11.8906C46.473 12.0156 46.8871 12.2083 47.2465 12.4688C47.6058 12.7292 47.8949 13.0625 48.1136 13.4688C48.3324 13.8698 48.4418 14.349 48.4418 14.9062C48.4418 15.3646 48.3584 15.8021 48.1918 16.2188C48.0251 16.6354 47.7803 17.0052 47.4574 17.3281C47.7491 17.4531 47.9991 17.6172 48.2074 17.8203C48.4209 18.0182 48.5954 18.2422 48.7308 18.4922C48.8663 18.7422 48.9652 19.013 49.0277 19.3047C49.0954 19.5911 49.1293 19.8854 49.1293 20.1875ZM47.2543 14.7969C47.2543 14.4844 47.2048 14.2083 47.1058 13.9688C47.0069 13.724 46.8689 13.513 46.6918 13.3359C46.5147 13.1536 46.3038 13.0078 46.059 12.8984C45.8142 12.7839 45.5459 12.6979 45.2543 12.6406C45.2647 12.6667 45.2699 12.6901 45.2699 12.7109C45.2699 12.7318 45.2699 12.75 45.2699 12.7656C45.2699 13.2604 45.2647 13.75 45.2543 14.2344C45.2439 14.7135 45.2386 15.1979 45.2386 15.6875V16.5C45.2386 16.6042 45.2413 16.7109 45.2465 16.8203C45.2517 16.9245 45.2543 17.0312 45.2543 17.1406C45.3897 17.0833 45.5251 17.0547 45.6605 17.0547C45.8011 17.0495 45.9418 17.0469 46.0824 17.0469C46.473 16.8021 46.7647 16.4818 46.9574 16.0859C47.1553 15.6849 47.2543 15.2552 47.2543 14.7969ZM47.9574 20.1719C47.9574 19.9219 47.934 19.6797 47.8871 19.4453C47.8454 19.2109 47.7699 18.9974 47.6605 18.8047C47.5511 18.6068 47.4079 18.4375 47.2308 18.2969C47.0538 18.1562 46.8324 18.0521 46.5668 17.9844C46.1709 18.2083 45.7491 18.3594 45.3011 18.4375C45.3428 19.026 45.3923 19.6146 45.4496 20.2031C45.5121 20.7865 45.598 21.3698 45.7074 21.9531C45.7334 22.0885 45.7621 22.224 45.7933 22.3594C45.8298 22.4896 45.8532 22.625 45.8636 22.7656C46.2126 22.7188 46.5173 22.6224 46.7777 22.4766C47.0433 22.3255 47.2621 22.138 47.434 21.9141C47.611 21.6849 47.7413 21.4219 47.8246 21.125C47.9131 20.8281 47.9574 20.5104 47.9574 20.1719ZM54.4496 22.1094C54.4496 22.2292 54.3845 22.3438 54.2543 22.4531C54.1293 22.5625 53.9652 22.6641 53.7621 22.7578C53.5642 22.8464 53.3428 22.9297 53.098 23.0078C52.8584 23.0807 52.6215 23.1432 52.3871 23.1953C52.1579 23.2474 51.947 23.2865 51.7543 23.3125C51.5616 23.3438 51.4183 23.3594 51.3246 23.3594C51.1475 23.3594 50.9834 23.3385 50.8324 23.2969C50.6866 23.2552 50.559 23.1927 50.4496 23.1094C50.3402 23.0208 50.2543 22.9089 50.1918 22.7734C50.1345 22.638 50.1058 22.474 50.1058 22.2812C50.1058 20.8906 50.111 19.5052 50.1215 18.125C50.1319 16.7448 50.1371 15.3542 50.1371 13.9531C50.1371 13.7344 50.1319 13.5182 50.1215 13.3047C50.111 13.0911 50.1058 12.875 50.1058 12.6562C50.1058 12.6042 50.1084 12.5443 50.1136 12.4766C50.1189 12.4036 50.1319 12.3385 50.1527 12.2812C50.1735 12.2188 50.2048 12.1667 50.2465 12.125C50.2881 12.0833 50.3454 12.0625 50.4183 12.0625C50.4913 12.0625 50.5668 12.0729 50.6449 12.0938C50.7282 12.1146 50.8038 12.1458 50.8715 12.1875C50.9444 12.2292 51.0069 12.2812 51.059 12.3438C51.1163 12.401 51.1579 12.4688 51.184 12.5469C51.21 12.6406 51.2204 12.7422 51.2152 12.8516C51.2152 12.9557 51.2152 13.0625 51.2152 13.1719C51.2413 14.5573 51.2595 15.9323 51.2699 17.2969C51.2855 18.6615 51.2933 20.0365 51.2933 21.4219C51.2933 21.5781 51.2933 21.7344 51.2933 21.8906C51.2985 22.0469 51.309 22.2031 51.3246 22.3594C51.4652 22.3542 51.6371 22.3307 51.8402 22.2891C52.0433 22.2474 52.2465 22.1953 52.4496 22.1328C52.6579 22.0651 52.8532 21.9896 53.0355 21.9062C53.2178 21.8229 53.361 21.7344 53.4652 21.6406C53.5121 21.5938 53.5616 21.5469 53.6136 21.5C53.6657 21.4479 53.7308 21.4219 53.809 21.4219C53.8767 21.4219 53.947 21.4453 54.0199 21.4922C54.098 21.5391 54.1683 21.599 54.2308 21.6719C54.2933 21.7396 54.3454 21.8125 54.3871 21.8906C54.4288 21.9688 54.4496 22.0417 54.4496 22.1094ZM59.7152 17.25C59.7152 17.4688 59.71 17.724 59.6996 18.0156C59.6944 18.3021 59.6761 18.6094 59.6449 18.9375C59.6189 19.2656 59.5772 19.6016 59.5199 19.9453C59.4678 20.2891 59.3975 20.625 59.309 20.9531C59.2204 21.2812 59.111 21.5911 58.9808 21.8828C58.8506 22.1745 58.6944 22.4297 58.5121 22.6484C58.3298 22.8672 58.1189 23.0417 57.8793 23.1719C57.6397 23.2969 57.3663 23.3594 57.059 23.3594C56.7517 23.3594 56.473 23.2891 56.223 23.1484C55.973 23.0026 55.7621 22.8125 55.5902 22.5781C55.4496 22.3906 55.3246 22.1615 55.2152 21.8906C55.111 21.6146 55.0173 21.3151 54.934 20.9922C54.8558 20.6693 54.7881 20.3333 54.7308 19.9844C54.6735 19.6354 54.6267 19.2917 54.5902 18.9531C54.559 18.6146 54.5355 18.2943 54.5199 17.9922C54.5043 17.6849 54.4965 17.4167 54.4965 17.1875C54.4965 16.8021 54.5121 16.3984 54.5433 15.9766C54.5798 15.5547 54.6449 15.138 54.7386 14.7266C54.8324 14.3099 54.96 13.9089 55.1215 13.5234C55.2829 13.138 55.4913 12.7917 55.7465 12.4844C55.7725 12.4531 55.8038 12.4167 55.8402 12.375C55.8819 12.3333 55.9261 12.2943 55.973 12.2578C56.0199 12.2161 56.0668 12.1823 56.1136 12.1562C56.1657 12.125 56.2152 12.1094 56.2621 12.1094C56.309 12.1094 56.3532 12.1224 56.3949 12.1484C56.4418 12.1745 56.4808 12.2083 56.5121 12.25C56.6215 12.1875 56.736 12.1432 56.8558 12.1172C56.9808 12.0911 57.1058 12.0781 57.2308 12.0781C57.611 12.0781 57.9366 12.1693 58.2074 12.3516C58.4834 12.5286 58.7126 12.763 58.8949 13.0547C59.0772 13.3464 59.223 13.6771 59.3324 14.0469C59.4418 14.4167 59.5251 14.7943 59.5824 15.1797C59.6397 15.5651 59.6761 15.9375 59.6918 16.2969C59.7074 16.6562 59.7152 16.974 59.7152 17.25ZM58.4965 17.5938C58.4965 17.4583 58.4913 17.2526 58.4808 16.9766C58.4756 16.6953 58.4574 16.388 58.4261 16.0547C58.3949 15.7161 58.3506 15.3698 58.2933 15.0156C58.2413 14.6615 58.1683 14.3411 58.0746 14.0547C57.9808 13.763 57.8636 13.526 57.723 13.3438C57.5876 13.1562 57.4235 13.0625 57.2308 13.0625C57.1527 13.0625 57.0824 13.099 57.0199 13.1719C56.9574 13.2448 56.8975 13.3385 56.8402 13.4531C56.7829 13.5677 56.7308 13.6927 56.684 13.8281C56.6371 13.9635 56.5902 14.0938 56.5433 14.2188C56.4965 14.3438 56.4522 14.4557 56.4105 14.5547C56.3689 14.6536 56.3246 14.724 56.2777 14.7656C56.2621 14.7812 56.236 14.7917 56.1996 14.7969C56.1683 14.7969 56.1371 14.7969 56.1058 14.7969C56.0173 14.7969 55.934 14.7812 55.8558 14.75C55.7673 15.1042 55.7048 15.4583 55.6683 15.8125C55.6371 16.1615 55.6215 16.5156 55.6215 16.875C55.6215 16.9844 55.6267 17.1484 55.6371 17.3672C55.6475 17.5859 55.6631 17.8359 55.684 18.1172C55.7048 18.3984 55.7334 18.7005 55.7699 19.0234C55.8064 19.3464 55.8506 19.6693 55.9027 19.9922C55.9548 20.3099 56.0147 20.6172 56.0824 20.9141C56.1553 21.2057 56.2386 21.4661 56.3324 21.6953C56.4261 21.9193 56.5303 22.099 56.6449 22.2344C56.7595 22.3698 56.8871 22.4375 57.0277 22.4375C57.1058 22.4375 57.1761 22.4167 57.2386 22.375C57.3011 22.3281 57.361 22.2812 57.4183 22.2344C57.5746 22.0938 57.71 21.9089 57.8246 21.6797C57.9392 21.4505 58.0355 21.1979 58.1136 20.9219C58.1918 20.6458 58.2569 20.3568 58.309 20.0547C58.361 19.7474 58.4001 19.4453 58.4261 19.1484C58.4522 18.8516 58.4704 18.5703 58.4808 18.3047C58.4913 18.0339 58.4965 17.7969 58.4965 17.5938ZM66.7621 17.6406C66.7621 17.8073 66.7308 17.9375 66.6683 18.0312C66.611 18.1198 66.5329 18.1875 66.434 18.2344C66.335 18.2812 66.223 18.3099 66.098 18.3203C65.9782 18.3307 65.8558 18.3385 65.7308 18.3438C66.0121 18.6354 66.236 18.9714 66.4027 19.3516C66.5694 19.7318 66.6527 20.125 66.6527 20.5312C66.6527 20.9323 66.585 21.3255 66.4496 21.7109C66.3142 22.0911 66.1215 22.4297 65.8715 22.7266C65.6215 23.0234 65.322 23.263 64.973 23.4453C64.6241 23.6276 64.236 23.7188 63.809 23.7188C63.4704 23.7188 63.1657 23.6536 62.8949 23.5234C62.6241 23.3932 62.3819 23.2161 62.1683 22.9922C61.9548 22.763 61.7673 22.5 61.6058 22.2031C61.4444 21.901 61.3064 21.5807 61.1918 21.2422C61.0772 20.8984 60.9808 20.5443 60.9027 20.1797C60.8298 19.8151 60.7699 19.4583 60.723 19.1094C60.6814 18.7604 60.6501 18.4297 60.6293 18.1172C60.6136 17.7995 60.6058 17.5156 60.6058 17.2656C60.6058 16.974 60.6189 16.6615 60.6449 16.3281C60.6761 15.9948 60.7256 15.6589 60.7933 15.3203C60.861 14.9818 60.9522 14.651 61.0668 14.3281C61.1814 14.0052 61.3272 13.7083 61.5043 13.4375C61.6814 13.1615 61.8897 12.9219 62.1293 12.7188C62.3741 12.5104 62.6579 12.3542 62.9808 12.25C63.1006 12.2083 63.2204 12.1771 63.3402 12.1562C63.46 12.1354 63.5798 12.125 63.6996 12.125C64.2204 12.125 64.6527 12.2656 64.9965 12.5469C65.3454 12.8281 65.6058 13.2083 65.7777 13.6875C65.809 13.7604 65.835 13.8359 65.8558 13.9141C65.8767 13.987 65.8871 14.0625 65.8871 14.1406C65.8871 14.2344 65.8532 14.2943 65.7855 14.3203C65.7178 14.3464 65.6475 14.3594 65.5746 14.3594C65.3871 14.3594 65.236 14.3255 65.1215 14.2578C65.0069 14.1901 64.9105 14.1068 64.8324 14.0078C64.7543 13.9089 64.684 13.7995 64.6215 13.6797C64.5642 13.5599 64.4991 13.4505 64.4261 13.3516C64.3532 13.2526 64.2621 13.1693 64.1527 13.1016C64.0433 13.0339 63.8975 13 63.7152 13C63.4548 13 63.2256 13.0729 63.0277 13.2188C62.8298 13.3646 62.6579 13.5573 62.5121 13.7969C62.3663 14.0312 62.2439 14.2995 62.1449 14.6016C62.0459 14.8984 61.9678 15.1979 61.9105 15.5C61.8532 15.7969 61.8116 16.0833 61.7855 16.3594C61.7595 16.6354 61.7465 16.8698 61.7465 17.0625C61.7465 17.2656 61.7595 17.5469 61.7855 17.9062C61.8116 18.2656 61.8532 18.6562 61.9105 19.0781C61.973 19.5 62.0538 19.9297 62.1527 20.3672C62.2569 20.7995 62.3845 21.1927 62.5355 21.5469C62.6918 21.901 62.8741 22.1901 63.0824 22.4141C63.2959 22.638 63.5433 22.75 63.8246 22.75C64.0694 22.75 64.2907 22.6797 64.4886 22.5391C64.6866 22.3932 64.8532 22.2135 64.9886 22C65.1293 21.7812 65.236 21.5495 65.309 21.3047C65.3819 21.0547 65.4183 20.8229 65.4183 20.6094C65.4183 20.4062 65.3897 20.2057 65.3324 20.0078C65.2751 19.8047 65.1944 19.6146 65.0902 19.4375C64.986 19.2552 64.861 19.0885 64.7152 18.9375C64.5694 18.7812 64.4079 18.651 64.2308 18.5469C64.1683 18.5052 64.098 18.4688 64.0199 18.4375C63.947 18.401 63.8715 18.3698 63.7933 18.3438C63.7517 18.3385 63.6709 18.3333 63.5511 18.3281C63.4314 18.3177 63.309 18.3047 63.184 18.2891C63.059 18.2734 62.947 18.25 62.848 18.2188C62.7491 18.1823 62.6996 18.1302 62.6996 18.0625C62.6996 17.9688 62.7152 17.8724 62.7465 17.7734C62.7777 17.6745 62.822 17.5859 62.8793 17.5078C62.9418 17.4297 63.0121 17.3646 63.0902 17.3125C63.1735 17.2604 63.2673 17.2344 63.3715 17.2344C63.5225 17.2344 63.684 17.2578 63.8558 17.3047C64.0329 17.3464 64.1892 17.3958 64.3246 17.4531C64.585 17.4375 64.8428 17.4219 65.098 17.4062C65.3532 17.3854 65.6058 17.3594 65.8558 17.3281C65.9444 17.3177 66.0303 17.3047 66.1136 17.2891C66.2022 17.2734 66.2933 17.2656 66.3871 17.2656C66.5121 17.2656 66.6058 17.2943 66.6683 17.3516C66.7308 17.4089 66.7621 17.5052 66.7621 17.6406Z" fill="white"/>
<path d="M21.6101 12.687C21.6 12.6743 21.5899 12.6617 21.5798 12.6492C21.2634 12.2536 20.9792 11.8982 20.7135 11.6459C20.4265 11.3735 20.0625 11.1233 19.575 11.1024C19.525 11.1002 19.475 11.1002 19.425 11.1024C18.9375 11.1233 18.5735 11.3735 18.2866 11.6459C18.0208 11.8982 17.7366 12.2536 17.4202 12.6492C17.4102 12.6617 17.4001 12.6743 17.39 12.687L11.7184 19.7765C11.7086 19.7887 11.6988 19.8009 11.6889 19.8133C11.5673 19.9647 11.4366 20.1274 11.3466 20.3205C11.2567 20.5137 11.2161 20.7183 11.1783 20.9088C11.1753 20.9244 11.1722 20.9398 11.1692 20.9551L10.5966 23.8178C10.5945 23.8284 10.5923 23.8393 10.5901 23.8503C10.5591 24.0045 10.5213 24.1927 10.5133 24.3541C10.5042 24.5357 10.5193 24.8951 10.8257 25.1707C11.132 25.4463 11.491 25.4235 11.6706 25.3954C11.8303 25.3704 12.0135 25.313 12.1635 25.266C12.1742 25.2626 12.1848 25.2593 12.1952 25.256L14.1404 24.6482C14.159 24.6423 14.1779 24.6365 14.1969 24.6306C14.4287 24.5587 14.6782 24.4813 14.8974 24.3315L14.4743 23.7123L14.8974 24.3315C15.1166 24.1817 15.2793 23.9774 15.4306 23.7875C15.443 23.772 15.4552 23.7566 15.4675 23.7413L21.6101 16.063L21.6328 16.0347C21.8411 15.7743 22.0355 15.5313 22.1741 15.3102C22.3277 15.065 22.4572 14.78 22.4685 14.4315C22.4697 14.3938 22.4697 14.3562 22.4685 14.3185C22.4572 13.97 22.3277 13.685 22.1741 13.4398C22.0355 13.2187 21.8411 12.9757 21.6328 12.7153L21.6101 12.687L21.6101 12.687Z" stroke="white" stroke-width="1.5"/>
<path d="M17.4167 12.8125L19.9167 10.7291L22.4167 13.8541L20.75 16.9791L17.4167 12.8125Z" fill="white" stroke="white" stroke-width="0.5"/>
</svg>
