<svg width="75" height="35" viewBox="0 0 75 35" fill="none" xmlns="http://www.w3.org/2000/svg">
<rect width="75" height="35" rx="5" fill="#FF6E6E"/>
<path d="M40.7143 21.7969C40.7143 21.8854 40.6778 21.9714 40.6049 22.0547C40.5372 22.138 40.4539 22.2188 40.3549 22.2969C40.256 22.375 40.1544 22.4479 40.0502 22.5156C39.9461 22.5781 39.8601 22.6302 39.7924 22.6719C39.6153 22.7865 39.4383 22.8932 39.2612 22.9922C39.0893 23.0911 38.9096 23.1771 38.7221 23.25C38.5398 23.3229 38.3497 23.3802 38.1518 23.4219C37.9591 23.4635 37.756 23.4844 37.5424 23.4844L37.4174 23.5C37.2455 23.5 37.0737 23.4818 36.9018 23.4453C36.7351 23.4036 36.5789 23.3438 36.433 23.2656C36.2872 23.1823 36.157 23.0781 36.0424 22.9531C35.9278 22.8281 35.8393 22.6771 35.7768 22.5C35.7299 22.3594 35.6935 22.1927 35.6674 22C35.6414 21.8073 35.6205 21.6068 35.6049 21.3984C35.5945 21.1901 35.5841 20.987 35.5737 20.7891C35.5685 20.5859 35.5633 20.4062 35.558 20.25C35.4799 18.6562 35.4174 17.0625 35.3705 15.4688C35.3601 15.2865 35.3523 15.1042 35.3471 14.9219C35.3419 14.7396 35.3393 14.5573 35.3393 14.375C35.3393 14.0625 35.3575 13.7969 35.394 13.5781C35.4304 13.3594 35.5034 13.1797 35.6127 13.0391C35.7221 12.8984 35.8784 12.7969 36.0815 12.7344C36.2898 12.6719 36.5633 12.6406 36.9018 12.6406C37.2403 12.6406 37.5789 12.6432 37.9174 12.6484C38.2612 12.6536 38.6049 12.6562 38.9487 12.6562C39.0528 12.6562 39.157 12.6536 39.2612 12.6484C39.3653 12.638 39.4695 12.6458 39.5737 12.6719C39.6362 12.6823 39.6909 12.7005 39.7377 12.7266C39.7846 12.7474 39.808 12.7969 39.808 12.875C39.808 13.0625 39.7455 13.2031 39.6205 13.2969C39.4955 13.3854 39.3471 13.4453 39.1752 13.4766C39.0034 13.5078 38.8237 13.5234 38.6362 13.5234C38.4539 13.5182 38.3028 13.5156 38.183 13.5156H37.1674C37.0633 13.5156 36.9591 13.5156 36.8549 13.5156C36.7508 13.5156 36.6466 13.5208 36.5424 13.5312C36.5112 13.6094 36.4903 13.6901 36.4799 13.7734C36.4695 13.8568 36.4643 13.9427 36.4643 14.0312C36.4643 14.599 36.4773 15.1589 36.5034 15.7109C36.5346 16.263 36.5633 16.8229 36.5893 17.3906C36.9122 17.3646 37.2325 17.3333 37.5502 17.2969C37.8679 17.2604 38.1883 17.2188 38.5112 17.1719C38.558 17.1719 38.5997 17.1693 38.6362 17.1641C38.6778 17.1589 38.7195 17.1562 38.7612 17.1562C38.8705 17.1562 38.9461 17.1849 38.9877 17.2422C39.0346 17.2995 39.058 17.3802 39.058 17.4844C39.058 17.5573 39.0528 17.625 39.0424 17.6875C39.0372 17.75 39.0216 17.8125 38.9955 17.875C38.9591 17.9792 38.8992 18.0547 38.8159 18.1016C38.7325 18.1484 38.6388 18.1823 38.5346 18.2031C38.4304 18.2188 38.3211 18.2266 38.2065 18.2266C38.0971 18.2266 38.0008 18.2292 37.9174 18.2344C37.6987 18.2448 37.4825 18.2526 37.269 18.2578C37.0606 18.263 36.8497 18.2708 36.6362 18.2812C36.6414 18.3906 36.6492 18.5547 36.6596 18.7734C36.67 18.9922 36.6804 19.2396 36.6909 19.5156C36.7065 19.7865 36.7221 20.0677 36.7377 20.3594C36.7586 20.651 36.7794 20.9271 36.8002 21.1875C36.8211 21.4427 36.8445 21.6667 36.8705 21.8594C36.8966 22.0521 36.9226 22.1823 36.9487 22.25C37.006 22.3594 37.0711 22.4323 37.144 22.4688C37.2169 22.5 37.3133 22.5156 37.433 22.5156C37.6258 22.5156 37.8289 22.4792 38.0424 22.4062C38.256 22.3281 38.4643 22.2318 38.6674 22.1172C38.8705 21.9974 39.0633 21.8672 39.2455 21.7266C39.433 21.5859 39.5945 21.4479 39.7299 21.3125C39.7872 21.2656 39.8445 21.2188 39.9018 21.1719C39.9591 21.1198 40.0268 21.0938 40.1049 21.0938C40.183 21.0938 40.2586 21.1172 40.3315 21.1641C40.4044 21.2109 40.4695 21.2708 40.5268 21.3438C40.5841 21.4115 40.6284 21.487 40.6596 21.5703C40.6961 21.6536 40.7143 21.7292 40.7143 21.7969ZM43.683 17.4531C43.683 17.526 43.6674 17.5938 43.6362 17.6562C43.6049 17.7448 43.5737 17.8177 43.5424 17.875C43.5164 17.9323 43.4825 17.9766 43.4409 18.0078C43.3992 18.0391 43.3471 18.0625 43.2846 18.0781C43.2273 18.0885 43.1518 18.0938 43.058 18.0938H40.933C40.8966 18.0938 40.8497 18.0938 40.7924 18.0938C40.7403 18.0885 40.6856 18.0807 40.6284 18.0703C40.5763 18.0547 40.5294 18.0339 40.4877 18.0078C40.4513 17.9766 40.433 17.9323 40.433 17.875C40.433 17.75 40.4773 17.6406 40.5659 17.5469C40.6544 17.4479 40.7612 17.3854 40.8862 17.3594C40.9903 17.3438 41.0945 17.3359 41.1987 17.3359C41.3028 17.3307 41.407 17.3229 41.5112 17.3125C41.808 17.2969 42.1049 17.2812 42.4018 17.2656C42.6987 17.2448 43.0008 17.2344 43.308 17.2344C43.3445 17.2344 43.3836 17.237 43.4252 17.2422C43.4721 17.2422 43.5138 17.25 43.5502 17.2656C43.5919 17.276 43.6231 17.2969 43.644 17.3281C43.67 17.3594 43.683 17.401 43.683 17.4531ZM50.7143 23.5156C50.7143 23.6198 50.6883 23.7031 50.6362 23.7656C50.5893 23.8281 50.506 23.8594 50.3862 23.8594C50.3237 23.8594 50.2586 23.8516 50.1909 23.8359C50.1231 23.8255 50.058 23.8073 49.9955 23.7812C49.8653 23.7448 49.7612 23.7109 49.683 23.6797C49.6101 23.6484 49.5528 23.6068 49.5112 23.5547C49.4747 23.5078 49.4513 23.4453 49.4409 23.3672C49.4304 23.2891 49.4226 23.1823 49.4174 23.0469C49.3758 21.9792 49.3289 20.9219 49.2768 19.875C49.2299 18.8229 49.1518 17.7656 49.0424 16.7031C48.9695 17.0625 48.8992 17.4219 48.8315 17.7812C48.7638 18.1406 48.6935 18.5052 48.6205 18.875C48.5476 19.2604 48.4773 19.6536 48.4096 20.0547C48.3471 20.4557 48.2455 20.8438 48.1049 21.2188C48.0476 21.3698 47.9773 21.4896 47.894 21.5781C47.8106 21.6615 47.683 21.7031 47.5112 21.7031C47.3862 21.7031 47.2846 21.6823 47.2065 21.6406C47.1284 21.5938 47.0528 21.526 46.9799 21.4375C46.9122 21.3646 46.8393 21.224 46.7612 21.0156C46.683 20.8073 46.5997 20.5651 46.5112 20.2891C46.4278 20.0078 46.3445 19.7083 46.2612 19.3906C46.1778 19.0729 46.0997 18.7682 46.0268 18.4766C45.9539 18.1797 45.8888 17.9089 45.8315 17.6641C45.7742 17.4193 45.7299 17.2344 45.6987 17.1094V18.1719C45.6987 18.8646 45.7117 19.5547 45.7377 20.2422C45.7638 20.9297 45.808 21.6146 45.8705 22.2969C45.8862 22.4479 45.907 22.599 45.933 22.75C45.9643 22.901 45.9799 23.0521 45.9799 23.2031C45.9799 23.3385 45.933 23.4271 45.8393 23.4688C45.7508 23.5104 45.6518 23.5312 45.5424 23.5312C45.2455 23.5312 45.0164 23.4688 44.8549 23.3438C44.6987 23.2135 44.6205 22.9948 44.6205 22.6875C44.6205 22.0573 44.6049 21.4323 44.5737 20.8125C44.5424 20.1927 44.5268 19.5677 44.5268 18.9375C44.5268 18.849 44.5268 18.6953 44.5268 18.4766C44.532 18.2578 44.5372 18 44.5424 17.7031C44.5476 17.401 44.5528 17.0755 44.558 16.7266C44.5685 16.3724 44.5789 16.0156 44.5893 15.6562C44.5997 15.2969 44.6101 14.9479 44.6205 14.6094C44.631 14.2656 44.6414 13.9583 44.6518 13.6875C44.6622 13.4167 44.6726 13.1927 44.683 13.0156C44.6987 12.8333 44.7143 12.724 44.7299 12.6875C44.756 12.6146 44.7846 12.5677 44.8159 12.5469C44.8523 12.526 44.907 12.5156 44.9799 12.5156C45.1778 12.5156 45.3419 12.5599 45.4721 12.6484C45.6075 12.7318 45.6987 12.875 45.7455 13.0781C45.8185 13.1875 45.9018 13.388 45.9955 13.6797C46.0893 13.9661 46.1883 14.3021 46.2924 14.6875C46.3966 15.0729 46.5008 15.4896 46.6049 15.9375C46.7143 16.3802 46.8159 16.8073 46.9096 17.2188C47.0086 17.6302 47.0971 18.0078 47.1752 18.3516C47.2586 18.6953 47.3237 18.9583 47.3705 19.1406C47.5216 18.2448 47.6752 17.3542 47.8315 16.4688C47.9877 15.5833 48.1362 14.6927 48.2768 13.7969C48.3028 13.6458 48.3289 13.4974 48.3549 13.3516C48.3862 13.2057 48.4018 13.0573 48.4018 12.9062C48.4018 12.8125 48.3888 12.7266 48.3627 12.6484C48.3367 12.5651 48.3237 12.4792 48.3237 12.3906C48.3237 12.2812 48.3575 12.2161 48.4252 12.1953C48.4981 12.1693 48.5789 12.1562 48.6674 12.1562C48.7508 12.1562 48.8497 12.1693 48.9643 12.1953C49.0789 12.2214 49.1883 12.2604 49.2924 12.3125C49.4018 12.3646 49.4929 12.4297 49.5659 12.5078C49.644 12.5859 49.683 12.6771 49.683 12.7812C49.683 12.9635 49.6674 13.1562 49.6362 13.3594C49.8237 14.2396 49.9799 15.1224 50.1049 16.0078C50.2299 16.888 50.3237 17.776 50.3862 18.6719C50.4487 19.4427 50.4981 20.2083 50.5346 20.9688C50.5763 21.7292 50.6258 22.4896 50.683 23.25C50.6935 23.2969 50.7013 23.3411 50.7065 23.3828C50.7117 23.4245 50.7143 23.4688 50.7143 23.5156ZM57.3393 19.2031C57.3393 19.3125 57.3002 19.4271 57.2221 19.5469C57.144 19.6667 57.058 19.7552 56.9643 19.8125C56.9383 19.8281 56.894 19.8438 56.8315 19.8594C56.769 19.875 56.7013 19.8906 56.6284 19.9062C56.5606 19.9167 56.4929 19.9297 56.4252 19.9453C56.3627 19.9557 56.3133 19.9635 56.2768 19.9688L56.4643 21.125C56.5216 21.4844 56.5633 21.8464 56.5893 22.2109C56.6205 22.5703 56.6883 22.9271 56.7924 23.2812C56.8028 23.3125 56.8133 23.3411 56.8237 23.3672C56.8341 23.3932 56.8393 23.4271 56.8393 23.4688C56.8393 23.5365 56.8185 23.5885 56.7768 23.625C56.7403 23.6615 56.6935 23.6875 56.6362 23.7031C56.5841 23.724 56.5268 23.737 56.4643 23.7422C56.4018 23.7474 56.3445 23.75 56.2924 23.75H56.183C56.0216 23.75 55.8966 23.737 55.808 23.7109C55.7247 23.6849 55.6596 23.6406 55.6127 23.5781C55.5659 23.5156 55.5346 23.4375 55.519 23.3438C55.5034 23.2448 55.4851 23.125 55.4643 22.9844C55.3393 22.0312 55.1987 21.0781 55.0424 20.125C54.7195 20.1667 54.394 20.2057 54.0659 20.2422C53.7429 20.2786 53.4174 20.3125 53.0893 20.3438L52.8393 21.875C52.8289 21.9688 52.8133 22.0964 52.7924 22.2578C52.7768 22.4193 52.756 22.5859 52.7299 22.7578C52.7091 22.9245 52.683 23.0807 52.6518 23.2266C52.6258 23.3724 52.5945 23.4792 52.558 23.5469C52.5268 23.6094 52.4981 23.6536 52.4721 23.6797C52.4461 23.7057 52.3966 23.7188 52.3237 23.7188C52.2299 23.7188 52.1362 23.7005 52.0424 23.6641C51.9539 23.6328 51.8731 23.5859 51.8002 23.5234C51.7325 23.4661 51.6778 23.3958 51.6362 23.3125C51.5945 23.2292 51.5737 23.1354 51.5737 23.0312C51.5737 22.9271 51.5841 22.8229 51.6049 22.7188C51.631 22.6146 51.6518 22.5104 51.6674 22.4062C51.7247 22.0625 51.7768 21.7214 51.8237 21.3828C51.8705 21.0391 51.9226 20.6979 51.9799 20.3594C51.9435 20.3542 51.9018 20.3464 51.8549 20.3359C51.808 20.3203 51.7612 20.3021 51.7143 20.2812C51.6726 20.2604 51.6362 20.2344 51.6049 20.2031C51.5737 20.1719 51.558 20.1354 51.558 20.0938C51.558 20.0417 51.5763 19.9948 51.6127 19.9531C51.6544 19.9062 51.7013 19.8646 51.7534 19.8281C51.8106 19.7865 51.8679 19.7526 51.9252 19.7266C51.9825 19.6953 52.032 19.6719 52.0737 19.6562C52.183 18.9271 52.2872 18.2005 52.3862 17.4766C52.4851 16.7526 52.5737 16.0208 52.6518 15.2812C52.6726 15.0833 52.6909 14.8828 52.7065 14.6797C52.7221 14.4766 52.7377 14.2734 52.7534 14.0703C52.7742 13.8672 52.7976 13.6667 52.8237 13.4688C52.8549 13.2708 52.8966 13.0729 52.9487 12.875C52.9955 12.6875 53.0737 12.5365 53.183 12.4219C53.2924 12.3073 53.4539 12.25 53.6674 12.25C53.7299 12.25 53.7898 12.2552 53.8471 12.2656C53.9096 12.276 53.9643 12.2969 54.0112 12.3281C54.1466 12.3958 54.2872 12.5807 54.433 12.8828C54.5789 13.1849 54.7247 13.5521 54.8705 13.9844C55.0164 14.4115 55.1544 14.875 55.2846 15.375C55.42 15.875 55.5424 16.3594 55.6518 16.8281C55.7612 17.2969 55.8549 17.7214 55.933 18.1016C56.0112 18.4766 56.0685 18.7552 56.1049 18.9375C56.2143 18.9219 56.3237 18.9089 56.433 18.8984C56.5424 18.8828 56.6518 18.875 56.7612 18.875C56.8133 18.875 56.8731 18.8776 56.9409 18.8828C57.0086 18.888 57.0711 18.9036 57.1284 18.9297C57.1909 18.9505 57.2403 18.9844 57.2768 19.0312C57.3185 19.0729 57.3393 19.1302 57.3393 19.2031ZM54.8862 19.1406C54.7508 18.401 54.6023 17.6693 54.4409 16.9453C54.2846 16.2161 54.0997 15.4896 53.8862 14.7656C53.7924 15.5521 53.6909 16.3333 53.5815 17.1094C53.4721 17.8854 53.3549 18.6615 53.2299 19.4375C53.5112 19.3958 53.7872 19.3516 54.058 19.3047C54.3341 19.2526 54.6101 19.1979 54.8862 19.1406ZM62.1752 22.375C62.1752 22.526 62.1362 22.6693 62.058 22.8047C61.9799 22.9349 61.8731 23.0312 61.7377 23.0938C61.6961 23.1146 61.5945 23.1354 61.433 23.1562C61.2716 23.1719 61.0971 23.1875 60.9096 23.2031C60.7221 23.2188 60.5424 23.2344 60.3705 23.25C60.2039 23.2656 60.0867 23.276 60.019 23.2812C60.0034 23.3698 59.9617 23.4323 59.894 23.4688C59.8263 23.5 59.7534 23.5156 59.6752 23.5156C59.5867 23.5156 59.4851 23.5026 59.3705 23.4766C59.256 23.4505 59.1544 23.4219 59.0659 23.3906C58.8315 23.4219 58.5945 23.4557 58.3549 23.4922C58.1153 23.5286 57.8731 23.5469 57.6284 23.5469C57.4409 23.5469 57.3471 23.4583 57.3471 23.2812C57.3471 23.1042 57.3966 22.9688 57.4955 22.875C57.5945 22.7812 57.7143 22.7109 57.8549 22.6641C57.9955 22.6172 58.1466 22.5859 58.308 22.5703C58.4695 22.5547 58.6127 22.5365 58.7377 22.5156C58.7117 21.0365 58.683 19.5677 58.6518 18.1094C58.6258 16.651 58.6127 15.1823 58.6127 13.7031C58.3992 13.7188 58.1909 13.7344 57.9877 13.75C57.7846 13.7604 57.5815 13.7656 57.3784 13.7656C57.3367 13.7656 57.2924 13.7656 57.2455 13.7656C57.1987 13.7604 57.1544 13.7526 57.1127 13.7422C57.0763 13.7266 57.045 13.7057 57.019 13.6797C56.9877 13.6484 56.9721 13.6042 56.9721 13.5469C56.9721 13.4479 56.9929 13.362 57.0346 13.2891C57.0763 13.2109 57.131 13.1484 57.1987 13.1016C57.2716 13.0495 57.3497 13.0078 57.433 12.9766C57.5164 12.9453 57.6023 12.9219 57.6909 12.9062C57.9148 12.8646 58.1414 12.8307 58.3705 12.8047C58.6049 12.7734 58.8367 12.7448 59.0659 12.7188C59.3002 12.6875 59.532 12.6562 59.7612 12.625C59.9955 12.5938 60.2273 12.5521 60.4565 12.5C60.6752 12.4531 60.894 12.3932 61.1127 12.3203C61.3315 12.2422 61.5554 12.2031 61.7846 12.2031C61.9096 12.2031 61.9929 12.25 62.0346 12.3438C62.0763 12.4323 62.0971 12.5312 62.0971 12.6406C62.0971 12.7292 62.0867 12.8151 62.0659 12.8984C62.0502 12.9766 62.0138 13.0521 61.9565 13.125C61.9252 13.1667 61.8549 13.2083 61.7455 13.25C61.6414 13.2865 61.5138 13.3203 61.3627 13.3516C61.2169 13.3828 61.058 13.4141 60.8862 13.4453C60.7195 13.4714 60.5554 13.4974 60.394 13.5234C60.2377 13.5443 60.0945 13.5625 59.9643 13.5781C59.8341 13.5938 59.7377 13.6042 59.6752 13.6094C59.7325 14.3333 59.7716 15.0573 59.7924 15.7812C59.8185 16.5052 59.8393 17.2292 59.8549 17.9531C59.8705 18.6771 59.8862 19.401 59.9018 20.125C59.9174 20.849 59.9461 21.5729 59.9877 22.2969C60.2846 22.25 60.5841 22.2057 60.8862 22.1641C61.1883 22.1172 61.4929 22.0938 61.8002 22.0938C61.8888 22.0938 61.9721 22.1146 62.0502 22.1562C62.1336 22.1927 62.1752 22.2656 62.1752 22.375ZM67.3627 22.3594C67.3627 22.4792 67.2976 22.5938 67.1674 22.7031C67.0424 22.8125 66.8784 22.9141 66.6752 23.0078C66.4773 23.0964 66.256 23.1797 66.0112 23.2578C65.7716 23.3307 65.5346 23.3932 65.3002 23.4453C65.0711 23.4974 64.8601 23.5365 64.6674 23.5625C64.4747 23.5938 64.3315 23.6094 64.2377 23.6094C64.0606 23.6094 63.8966 23.5885 63.7455 23.5469C63.5997 23.5052 63.4721 23.4427 63.3627 23.3594C63.2534 23.2708 63.1674 23.1589 63.1049 23.0234C63.0476 22.888 63.019 22.724 63.019 22.5312C63.019 21.1406 63.0242 19.7552 63.0346 18.375C63.045 16.9948 63.0502 15.6042 63.0502 14.2031C63.0502 13.9844 63.045 13.7682 63.0346 13.5547C63.0242 13.3411 63.019 13.125 63.019 12.9062C63.019 12.8542 63.0216 12.7943 63.0268 12.7266C63.032 12.6536 63.045 12.5885 63.0659 12.5312C63.0867 12.4688 63.1179 12.4167 63.1596 12.375C63.2013 12.3333 63.2586 12.3125 63.3315 12.3125C63.4044 12.3125 63.4799 12.3229 63.558 12.3438C63.6414 12.3646 63.7169 12.3958 63.7846 12.4375C63.8575 12.4792 63.92 12.5312 63.9721 12.5938C64.0294 12.651 64.0711 12.7188 64.0971 12.7969C64.1231 12.8906 64.1336 12.9922 64.1284 13.1016C64.1284 13.2057 64.1284 13.3125 64.1284 13.4219C64.1544 14.8073 64.1726 16.1823 64.183 17.5469C64.1987 18.9115 64.2065 20.2865 64.2065 21.6719C64.2065 21.8281 64.2065 21.9844 64.2065 22.1406C64.2117 22.2969 64.2221 22.4531 64.2377 22.6094C64.3784 22.6042 64.5502 22.5807 64.7534 22.5391C64.9565 22.4974 65.1596 22.4453 65.3627 22.3828C65.5711 22.3151 65.7664 22.2396 65.9487 22.1562C66.131 22.0729 66.2742 21.9844 66.3784 21.8906C66.4252 21.8438 66.4747 21.7969 66.5268 21.75C66.5789 21.6979 66.644 21.6719 66.7221 21.6719C66.7898 21.6719 66.8601 21.6953 66.933 21.7422C67.0112 21.7891 67.0815 21.849 67.144 21.9219C67.2065 21.9896 67.2586 22.0625 67.3002 22.1406C67.3419 22.2188 67.3627 22.2917 67.3627 22.3594Z" fill="white"/>
<rect x="10.2857" y="10.5" width="17.1429" height="15" rx="2" stroke="white" stroke-width="1.2"/>
<path d="M10.2857 14.25L17.8494 18.6622C18.4721 19.0254 19.2422 19.0254 19.8649 18.6622L27.4286 14.25" stroke="white" stroke-width="1.2"/>
<path d="M18.1517 18.1439L11.5803 14.3105C11.1502 14.0597 10.8857 13.5992 10.8857 13.1013V12.5C10.8857 11.7268 11.5125 11.1 12.2857 11.1H25.4286C26.2018 11.1 26.8286 11.7268 26.8286 12.5V13.1013C26.8286 13.5992 26.5641 14.0597 26.134 14.3105L19.5626 18.1439C19.1266 18.3982 18.5876 18.3982 18.1517 18.1439Z" stroke="white" stroke-width="1.2"/>
</svg>
