<svg width="76" height="35" viewBox="0 0 76 35" fill="none" xmlns="http://www.w3.org/2000/svg">
<rect width="75" height="35" rx="5" fill="#487CFF"/>
<path d="M26.4922 14.5938C26.4922 15.1094 26.4089 15.6276 26.2422 16.1484C26.0807 16.6693 25.8516 17.1562 25.5547 17.6094C25.263 18.0625 24.9115 18.4661 24.5 18.8203C24.0885 19.1745 23.638 19.4427 23.1484 19.625C23.1797 20.0573 23.2161 20.487 23.2578 20.9141C23.2995 21.3411 23.3568 21.7708 23.4297 22.2031C23.4453 22.2812 23.4609 22.362 23.4766 22.4453C23.4974 22.5286 23.5078 22.6146 23.5078 22.7031C23.5078 22.8385 23.474 22.9297 23.4062 22.9766C23.3385 23.0234 23.2422 23.0469 23.1172 23.0469C23.0286 23.0469 22.9219 23.0365 22.7969 23.0156C22.6719 22.9948 22.5651 22.9635 22.4766 22.9219C22.3724 22.8646 22.3021 22.8073 22.2656 22.75C22.2344 22.6875 22.2109 22.6042 22.1953 22.5C22.1068 22.0573 22.0521 21.6146 22.0312 21.1719C22.0156 20.7292 21.9922 20.2865 21.9609 19.8438C21.8568 19.8333 21.7708 19.8073 21.7031 19.7656C21.6354 19.7188 21.6016 19.6406 21.6016 19.5312C21.6016 19.4271 21.6302 19.3177 21.6875 19.2031C21.75 19.0885 21.8203 19 21.8984 18.9375C21.8516 17.9688 21.8307 17.0078 21.8359 16.0547C21.8464 15.1016 21.8464 14.1406 21.8359 13.1719C21.8099 13.1823 21.7865 13.1901 21.7656 13.1953C21.7448 13.2005 21.7214 13.2031 21.6953 13.2031C21.638 13.2031 21.5911 13.1901 21.5547 13.1641C21.5182 13.1328 21.487 13.0964 21.4609 13.0547C21.4401 13.013 21.4245 12.9688 21.4141 12.9219C21.4036 12.8698 21.3984 12.8229 21.3984 12.7812C21.3984 12.625 21.4375 12.513 21.5156 12.4453C21.5938 12.3724 21.7005 12.3073 21.8359 12.25C21.8359 12.1927 21.8359 12.1276 21.8359 12.0547C21.8411 11.9766 21.8516 11.9062 21.8672 11.8438C21.888 11.776 21.9193 11.7214 21.9609 11.6797C22.0026 11.6328 22.0651 11.6094 22.1484 11.6094C22.2839 11.6094 22.4141 11.6354 22.5391 11.6875C22.6641 11.7396 22.7578 11.8281 22.8203 11.9531C23.0026 11.9219 23.1797 11.8932 23.3516 11.8672C23.5234 11.8411 23.7005 11.8281 23.8828 11.8281C24.2943 11.8281 24.6615 11.8984 24.9844 12.0391C25.3073 12.1745 25.5807 12.3672 25.8047 12.6172C26.0286 12.862 26.1979 13.1536 26.3125 13.4922C26.4323 13.8307 26.4922 14.1979 26.4922 14.5938ZM25.3203 14.4531C25.3203 14.2135 25.2891 13.9896 25.2266 13.7812C25.1641 13.5677 25.0703 13.3854 24.9453 13.2344C24.8203 13.0781 24.6615 12.9557 24.4688 12.8672C24.276 12.7786 24.0495 12.7344 23.7891 12.7344C23.6484 12.7344 23.5052 12.7448 23.3594 12.7656C23.2188 12.7865 23.0807 12.8177 22.9453 12.8594C22.9453 13.8125 22.9505 14.7578 22.9609 15.6953C22.9766 16.6328 23.013 17.5729 23.0703 18.5156C23.4036 18.3438 23.7083 18.1042 23.9844 17.7969C24.2604 17.4896 24.4974 17.151 24.6953 16.7812C24.8932 16.4062 25.0469 16.0182 25.1562 15.6172C25.2656 15.2109 25.3203 14.8229 25.3203 14.4531ZM32.2578 17C32.2578 17.2188 32.2526 17.474 32.2422 17.7656C32.237 18.0521 32.2188 18.3594 32.1875 18.6875C32.1615 19.0156 32.1198 19.3516 32.0625 19.6953C32.0104 20.0391 31.9401 20.375 31.8516 20.7031C31.763 21.0312 31.6536 21.3411 31.5234 21.6328C31.3932 21.9245 31.237 22.1797 31.0547 22.3984C30.8724 22.6172 30.6615 22.7917 30.4219 22.9219C30.1823 23.0469 29.9089 23.1094 29.6016 23.1094C29.2943 23.1094 29.0156 23.0391 28.7656 22.8984C28.5156 22.7526 28.3047 22.5625 28.1328 22.3281C27.9922 22.1406 27.8672 21.9115 27.7578 21.6406C27.6536 21.3646 27.5599 21.0651 27.4766 20.7422C27.3984 20.4193 27.3307 20.0833 27.2734 19.7344C27.2161 19.3854 27.1693 19.0417 27.1328 18.7031C27.1016 18.3646 27.0781 18.0443 27.0625 17.7422C27.0469 17.4349 27.0391 17.1667 27.0391 16.9375C27.0391 16.5521 27.0547 16.1484 27.0859 15.7266C27.1224 15.3047 27.1875 14.888 27.2812 14.4766C27.375 14.0599 27.5026 13.6589 27.6641 13.2734C27.8255 12.888 28.0339 12.5417 28.2891 12.2344C28.3151 12.2031 28.3464 12.1667 28.3828 12.125C28.4245 12.0833 28.4688 12.0443 28.5156 12.0078C28.5625 11.9661 28.6094 11.9323 28.6562 11.9062C28.7083 11.875 28.7578 11.8594 28.8047 11.8594C28.8516 11.8594 28.8958 11.8724 28.9375 11.8984C28.9844 11.9245 29.0234 11.9583 29.0547 12C29.1641 11.9375 29.2786 11.8932 29.3984 11.8672C29.5234 11.8411 29.6484 11.8281 29.7734 11.8281C30.1536 11.8281 30.4792 11.9193 30.75 12.1016C31.026 12.2786 31.2552 12.513 31.4375 12.8047C31.6198 13.0964 31.7656 13.4271 31.875 13.7969C31.9844 14.1667 32.0677 14.5443 32.125 14.9297C32.1823 15.3151 32.2188 15.6875 32.2344 16.0469C32.25 16.4062 32.2578 16.724 32.2578 17ZM31.0391 17.3438C31.0391 17.2083 31.0339 17.0026 31.0234 16.7266C31.0182 16.4453 31 16.138 30.9688 15.8047C30.9375 15.4661 30.8932 15.1198 30.8359 14.7656C30.7839 14.4115 30.7109 14.0911 30.6172 13.8047C30.5234 13.513 30.4062 13.276 30.2656 13.0938C30.1302 12.9062 29.9661 12.8125 29.7734 12.8125C29.6953 12.8125 29.625 12.849 29.5625 12.9219C29.5 12.9948 29.4401 13.0885 29.3828 13.2031C29.3255 13.3177 29.2734 13.4427 29.2266 13.5781C29.1797 13.7135 29.1328 13.8438 29.0859 13.9688C29.0391 14.0938 28.9948 14.2057 28.9531 14.3047C28.9115 14.4036 28.8672 14.474 28.8203 14.5156C28.8047 14.5312 28.7786 14.5417 28.7422 14.5469C28.7109 14.5469 28.6797 14.5469 28.6484 14.5469C28.5599 14.5469 28.4766 14.5312 28.3984 14.5C28.3099 14.8542 28.2474 15.2083 28.2109 15.5625C28.1797 15.9115 28.1641 16.2656 28.1641 16.625C28.1641 16.7344 28.1693 16.8984 28.1797 17.1172C28.1901 17.3359 28.2057 17.5859 28.2266 17.8672C28.2474 18.1484 28.276 18.4505 28.3125 18.7734C28.349 19.0964 28.3932 19.4193 28.4453 19.7422C28.4974 20.0599 28.5573 20.3672 28.625 20.6641C28.6979 20.9557 28.7812 21.2161 28.875 21.4453C28.9688 21.6693 29.0729 21.849 29.1875 21.9844C29.3021 22.1198 29.4297 22.1875 29.5703 22.1875C29.6484 22.1875 29.7188 22.1667 29.7812 22.125C29.8438 22.0781 29.9036 22.0312 29.9609 21.9844C30.1172 21.8438 30.2526 21.6589 30.3672 21.4297C30.4818 21.2005 30.5781 20.9479 30.6562 20.6719C30.7344 20.3958 30.7995 20.1068 30.8516 19.8047C30.9036 19.4974 30.9427 19.1953 30.9688 18.8984C30.9948 18.6016 31.013 18.3203 31.0234 18.0547C31.0339 17.7839 31.0391 17.5469 31.0391 17.3438ZM39.4219 22.9688C39.4219 23.0312 39.3906 23.0833 39.3281 23.125C39.2656 23.1667 39.1901 23.2005 39.1016 23.2266C39.0182 23.2526 38.9323 23.2708 38.8438 23.2812C38.7604 23.2917 38.6979 23.2969 38.6562 23.2969C38.5521 23.2969 38.4661 23.2865 38.3984 23.2656C38.3359 23.25 38.2604 23.2188 38.1719 23.1719C38.1458 23.1562 38.0833 23.0911 37.9844 22.9766C37.8906 22.8568 37.7708 22.7031 37.625 22.5156C37.4844 22.3281 37.3229 22.1146 37.1406 21.875C36.9635 21.6354 36.7786 21.3906 36.5859 21.1406C36.3984 20.8854 36.2109 20.6328 36.0234 20.3828C35.8411 20.1276 35.6719 19.8958 35.5156 19.6875C35.3594 19.474 35.224 19.2891 35.1094 19.1328C35 18.9714 34.9219 18.8594 34.875 18.7969L34.8281 18.8125C34.8594 19.4323 34.8984 20.0521 34.9453 20.6719C34.9974 21.2865 35.0833 21.8958 35.2031 22.5C35.2188 22.5625 35.2344 22.6276 35.25 22.6953C35.2708 22.763 35.2812 22.8333 35.2812 22.9062C35.2812 23.026 35.2422 23.1016 35.1641 23.1328C35.0859 23.1693 35 23.1875 34.9062 23.1875C34.8542 23.1875 34.7917 23.1849 34.7188 23.1797C34.6458 23.1745 34.5703 23.1641 34.4922 23.1484C34.4141 23.1328 34.3411 23.112 34.2734 23.0859C34.2109 23.0651 34.1615 23.0365 34.125 23C34.0521 22.9375 34.0052 22.8724 33.9844 22.8047C33.9688 22.737 33.9531 22.6562 33.9375 22.5625C33.7865 21.5156 33.6901 20.4661 33.6484 19.4141C33.612 18.3568 33.5938 17.3021 33.5938 16.25C33.5938 15.7917 33.5964 15.3411 33.6016 14.8984C33.6068 14.4557 33.6146 14.0052 33.625 13.5469C33.5625 13.5417 33.5026 13.5208 33.4453 13.4844C33.3932 13.4479 33.3464 13.4036 33.3047 13.3516C33.263 13.2943 33.2292 13.237 33.2031 13.1797C33.1823 13.1172 33.1719 13.0573 33.1719 13C33.1719 12.9427 33.1849 12.8854 33.2109 12.8281C33.2422 12.7708 33.2786 12.7188 33.3203 12.6719C33.3672 12.625 33.4167 12.5807 33.4688 12.5391C33.5208 12.4974 33.5677 12.4635 33.6094 12.4375V12.2969C33.6094 12.2448 33.6094 12.1849 33.6094 12.1172C33.6146 12.0495 33.625 11.987 33.6406 11.9297C33.6615 11.8672 33.6927 11.8177 33.7344 11.7812C33.776 11.7396 33.8385 11.7188 33.9219 11.7188C34.0312 11.7188 34.1406 11.737 34.25 11.7734C34.3594 11.8099 34.4531 11.875 34.5312 11.9688C34.9219 11.8125 35.3333 11.7344 35.7656 11.7344C36.1458 11.7344 36.4922 11.8099 36.8047 11.9609C37.1172 12.112 37.3828 12.3151 37.6016 12.5703C37.8255 12.8255 37.9974 13.1198 38.1172 13.4531C38.237 13.7865 38.2969 14.1354 38.2969 14.5C38.2969 14.8906 38.224 15.2708 38.0781 15.6406C37.9323 16.0052 37.7422 16.3516 37.5078 16.6797C37.2734 17.0078 37.0052 17.3099 36.7031 17.5859C36.4062 17.8568 36.1042 18.0938 35.7969 18.2969C36.2865 18.9479 36.7812 19.5938 37.2812 20.2344C37.7865 20.8698 38.3021 21.5052 38.8281 22.1406C38.8594 22.1771 38.9062 22.2318 38.9688 22.3047C39.0365 22.3776 39.1042 22.4583 39.1719 22.5469C39.2396 22.6302 39.2969 22.7109 39.3438 22.7891C39.3958 22.8672 39.4219 22.9271 39.4219 22.9688ZM37.1406 14.375C37.1406 14.1823 37.1068 13.9818 37.0391 13.7734C36.9714 13.5651 36.875 13.3776 36.75 13.2109C36.625 13.0391 36.474 12.8984 36.2969 12.7891C36.125 12.6797 35.9323 12.625 35.7188 12.625C35.5469 12.625 35.375 12.651 35.2031 12.7031C35.0365 12.75 34.875 12.8125 34.7188 12.8906C34.7292 13.6667 34.737 14.4427 34.7422 15.2188C34.7526 15.9948 34.7656 16.7708 34.7812 17.5469L34.9219 17.5625C35.1927 17.4115 35.4583 17.2214 35.7188 16.9922C35.9844 16.763 36.2214 16.5078 36.4297 16.2266C36.6432 15.9453 36.8151 15.6484 36.9453 15.3359C37.0755 15.0182 37.1406 14.6979 37.1406 14.375ZM44.2422 12.25C44.2422 12.4375 44.1875 12.5911 44.0781 12.7109C43.974 12.8307 43.8307 12.9115 43.6484 12.9531C43.3568 13.0156 43.0573 13.0495 42.75 13.0547C42.4479 13.0547 42.1484 13.0625 41.8516 13.0781V14.625C41.8516 15.9375 41.8906 17.2474 41.9688 18.5547C42.0521 19.8568 42.1849 21.1615 42.3672 22.4688C42.3828 22.5469 42.3984 22.625 42.4141 22.7031C42.4349 22.7812 42.4453 22.8594 42.4453 22.9375C42.4453 23.0625 42.4115 23.1536 42.3438 23.2109C42.2812 23.2682 42.1901 23.2969 42.0703 23.2969C41.9766 23.2969 41.8594 23.2839 41.7188 23.2578C41.5833 23.237 41.4766 23.2031 41.3984 23.1562C41.2943 23.0938 41.2266 23.0312 41.1953 22.9688C41.1693 22.901 41.1484 22.8125 41.1328 22.7031C41.0755 22.3333 41.0365 21.9635 41.0156 21.5938C40.9948 21.224 40.9714 20.8542 40.9453 20.4844C40.8828 19.6927 40.8307 18.9036 40.7891 18.1172C40.7474 17.3307 40.7266 16.5417 40.7266 15.75C40.7266 15.3177 40.7292 14.888 40.7344 14.4609C40.7396 14.0339 40.7422 13.599 40.7422 13.1562C40.4193 13.1875 40.0938 13.2188 39.7656 13.25C39.4427 13.2812 39.1172 13.2969 38.7891 13.2969C38.7109 13.2969 38.6484 13.2786 38.6016 13.2422C38.5495 13.2005 38.5234 13.1406 38.5234 13.0625C38.5234 12.8802 38.5833 12.7396 38.7031 12.6406C38.8229 12.5365 38.9661 12.4635 39.1328 12.4219C39.3984 12.3646 39.6693 12.3281 39.9453 12.3125C40.2214 12.2917 40.4974 12.2656 40.7734 12.2344C40.7734 12.1823 40.776 12.1328 40.7812 12.0859C40.7865 12.0339 40.7969 11.9896 40.8125 11.9531C40.8333 11.9115 40.862 11.8776 40.8984 11.8516C40.9349 11.8255 40.987 11.8125 41.0547 11.8125C41.1797 11.8125 41.3073 11.8411 41.4375 11.8984C41.5677 11.9557 41.6693 12.0365 41.7422 12.1406L43.0391 12C43.1641 11.9844 43.2891 11.9688 43.4141 11.9531C43.5391 11.9323 43.6641 11.9219 43.7891 11.9219C43.8464 11.9219 43.901 11.9245 43.9531 11.9297C44.0104 11.9349 44.0599 11.9505 44.1016 11.9766C44.1432 11.9974 44.1771 12.0312 44.2031 12.0781C44.2292 12.1198 44.2422 12.1771 44.2422 12.25ZM49.1328 12.375C49.1328 12.5312 49.0911 12.6536 49.0078 12.7422C48.9245 12.8307 48.8203 12.8958 48.6953 12.9375C48.5703 12.9792 48.4375 13.0052 48.2969 13.0156C48.1562 13.026 48.0286 13.0312 47.9141 13.0312C47.6849 13.0312 47.4557 13.0286 47.2266 13.0234C46.9974 13.0182 46.7682 13.0156 46.5391 13.0156C46.4297 13.0156 46.3203 13.0156 46.2109 13.0156C46.1016 13.0156 45.9922 13.0208 45.8828 13.0312C45.8411 13.1198 45.8151 13.2109 45.8047 13.3047C45.7943 13.3932 45.7891 13.4844 45.7891 13.5781C45.7891 14.0677 45.8073 14.5521 45.8438 15.0312C45.8802 15.5104 45.9193 15.9948 45.9609 16.4844C46.2734 16.4583 46.5859 16.4271 46.8984 16.3906C47.2109 16.3542 47.5286 16.3125 47.8516 16.2656C47.8932 16.2656 47.9323 16.263 47.9688 16.2578C48.0052 16.2526 48.0443 16.25 48.0859 16.25C48.2943 16.25 48.3984 16.3646 48.3984 16.5938C48.3984 16.6562 48.3906 16.7188 48.375 16.7812C48.3646 16.8438 48.3464 16.9062 48.3203 16.9688C48.2839 17.0729 48.224 17.151 48.1406 17.2031C48.0573 17.25 47.9635 17.2839 47.8594 17.3047C47.7552 17.3203 47.6458 17.3281 47.5312 17.3281C47.4219 17.3229 47.3255 17.3229 47.2422 17.3281L46.0234 17.375C46.0547 17.8698 46.0885 18.3594 46.125 18.8438C46.1615 19.3281 46.2005 19.8177 46.2422 20.3125C46.2839 20.6875 46.3177 21.0651 46.3438 21.4453C46.375 21.8255 46.4193 22.2031 46.4766 22.5781V22.7031C46.4766 22.8229 46.4427 22.9036 46.375 22.9453C46.3073 22.9818 46.2214 23 46.1172 23C45.9245 23 45.7422 22.9688 45.5703 22.9062C45.4557 22.8646 45.3698 22.8151 45.3125 22.7578C45.2552 22.6953 45.2135 22.6276 45.1875 22.5547C45.1667 22.4766 45.1536 22.3932 45.1484 22.3047C45.1432 22.2161 45.138 22.1198 45.1328 22.0156C45.0859 21.2292 45.0339 20.4479 44.9766 19.6719C44.9193 18.8906 44.8672 18.1042 44.8203 17.3125C44.7891 16.7292 44.7552 16.151 44.7188 15.5781C44.6823 15.0052 44.6641 14.4271 44.6641 13.8438C44.6641 13.5365 44.6823 13.276 44.7188 13.0625C44.7604 12.8438 44.8359 12.6667 44.9453 12.5312C45.0547 12.3958 45.2109 12.2969 45.4141 12.2344C45.6172 12.1719 45.8828 12.1406 46.2109 12.1406C46.5495 12.1406 46.8854 12.1432 47.2188 12.1484C47.5521 12.1536 47.888 12.1562 48.2266 12.1562C48.3464 12.1562 48.4609 12.1536 48.5703 12.1484C48.6797 12.138 48.7891 12.1458 48.8984 12.1719C48.9609 12.1823 49.0156 12.2005 49.0625 12.2266C49.1094 12.2474 49.1328 12.2969 49.1328 12.375ZM54.6016 17C54.6016 17.2188 54.5964 17.474 54.5859 17.7656C54.5807 18.0521 54.5625 18.3594 54.5312 18.6875C54.5052 19.0156 54.4635 19.3516 54.4062 19.6953C54.3542 20.0391 54.2839 20.375 54.1953 20.7031C54.1068 21.0312 53.9974 21.3411 53.8672 21.6328C53.737 21.9245 53.5807 22.1797 53.3984 22.3984C53.2161 22.6172 53.0052 22.7917 52.7656 22.9219C52.526 23.0469 52.2526 23.1094 51.9453 23.1094C51.638 23.1094 51.3594 23.0391 51.1094 22.8984C50.8594 22.7526 50.6484 22.5625 50.4766 22.3281C50.3359 22.1406 50.2109 21.9115 50.1016 21.6406C49.9974 21.3646 49.9036 21.0651 49.8203 20.7422C49.7422 20.4193 49.6745 20.0833 49.6172 19.7344C49.5599 19.3854 49.513 19.0417 49.4766 18.7031C49.4453 18.3646 49.4219 18.0443 49.4062 17.7422C49.3906 17.4349 49.3828 17.1667 49.3828 16.9375C49.3828 16.5521 49.3984 16.1484 49.4297 15.7266C49.4661 15.3047 49.5312 14.888 49.625 14.4766C49.7188 14.0599 49.8464 13.6589 50.0078 13.2734C50.1693 12.888 50.3776 12.5417 50.6328 12.2344C50.6589 12.2031 50.6901 12.1667 50.7266 12.125C50.7682 12.0833 50.8125 12.0443 50.8594 12.0078C50.9062 11.9661 50.9531 11.9323 51 11.9062C51.0521 11.875 51.1016 11.8594 51.1484 11.8594C51.1953 11.8594 51.2396 11.8724 51.2812 11.8984C51.3281 11.9245 51.3672 11.9583 51.3984 12C51.5078 11.9375 51.6224 11.8932 51.7422 11.8672C51.8672 11.8411 51.9922 11.8281 52.1172 11.8281C52.4974 11.8281 52.8229 11.9193 53.0938 12.1016C53.3698 12.2786 53.599 12.513 53.7812 12.8047C53.9635 13.0964 54.1094 13.4271 54.2188 13.7969C54.3281 14.1667 54.4115 14.5443 54.4688 14.9297C54.526 15.3151 54.5625 15.6875 54.5781 16.0469C54.5938 16.4062 54.6016 16.724 54.6016 17ZM53.3828 17.3438C53.3828 17.2083 53.3776 17.0026 53.3672 16.7266C53.362 16.4453 53.3438 16.138 53.3125 15.8047C53.2812 15.4661 53.237 15.1198 53.1797 14.7656C53.1276 14.4115 53.0547 14.0911 52.9609 13.8047C52.8672 13.513 52.75 13.276 52.6094 13.0938C52.474 12.9062 52.3099 12.8125 52.1172 12.8125C52.0391 12.8125 51.9688 12.849 51.9062 12.9219C51.8438 12.9948 51.7839 13.0885 51.7266 13.2031C51.6693 13.3177 51.6172 13.4427 51.5703 13.5781C51.5234 13.7135 51.4766 13.8438 51.4297 13.9688C51.3828 14.0938 51.3385 14.2057 51.2969 14.3047C51.2552 14.4036 51.2109 14.474 51.1641 14.5156C51.1484 14.5312 51.1224 14.5417 51.0859 14.5469C51.0547 14.5469 51.0234 14.5469 50.9922 14.5469C50.9036 14.5469 50.8203 14.5312 50.7422 14.5C50.6536 14.8542 50.5911 15.2083 50.5547 15.5625C50.5234 15.9115 50.5078 16.2656 50.5078 16.625C50.5078 16.7344 50.513 16.8984 50.5234 17.1172C50.5339 17.3359 50.5495 17.5859 50.5703 17.8672C50.5911 18.1484 50.6198 18.4505 50.6562 18.7734C50.6927 19.0964 50.737 19.4193 50.7891 19.7422C50.8411 20.0599 50.901 20.3672 50.9688 20.6641C51.0417 20.9557 51.125 21.2161 51.2188 21.4453C51.3125 21.6693 51.4167 21.849 51.5312 21.9844C51.6458 22.1198 51.7734 22.1875 51.9141 22.1875C51.9922 22.1875 52.0625 22.1667 52.125 22.125C52.1875 22.0781 52.2474 22.0312 52.3047 21.9844C52.4609 21.8438 52.5964 21.6589 52.7109 21.4297C52.8255 21.2005 52.9219 20.9479 53 20.6719C53.0781 20.3958 53.1432 20.1068 53.1953 19.8047C53.2474 19.4974 53.2865 19.1953 53.3125 18.8984C53.3385 18.6016 53.3568 18.3203 53.3672 18.0547C53.3776 17.7839 53.3828 17.5469 53.3828 17.3438ZM60.2266 21.8594C60.2266 21.9792 60.1615 22.0938 60.0312 22.2031C59.9062 22.3125 59.7422 22.4141 59.5391 22.5078C59.3411 22.5964 59.1198 22.6797 58.875 22.7578C58.6354 22.8307 58.3984 22.8932 58.1641 22.9453C57.9349 22.9974 57.724 23.0365 57.5312 23.0625C57.3385 23.0938 57.1953 23.1094 57.1016 23.1094C56.9245 23.1094 56.7604 23.0885 56.6094 23.0469C56.4635 23.0052 56.3359 22.9427 56.2266 22.8594C56.1172 22.7708 56.0312 22.6589 55.9688 22.5234C55.9115 22.388 55.8828 22.224 55.8828 22.0312C55.8828 20.6406 55.888 19.2552 55.8984 17.875C55.9089 16.4948 55.9141 15.1042 55.9141 13.7031C55.9141 13.4844 55.9089 13.2682 55.8984 13.0547C55.888 12.8411 55.8828 12.625 55.8828 12.4062C55.8828 12.3542 55.8854 12.2943 55.8906 12.2266C55.8958 12.1536 55.9089 12.0885 55.9297 12.0312C55.9505 11.9688 55.9818 11.9167 56.0234 11.875C56.0651 11.8333 56.1224 11.8125 56.1953 11.8125C56.2682 11.8125 56.3438 11.8229 56.4219 11.8438C56.5052 11.8646 56.5807 11.8958 56.6484 11.9375C56.7214 11.9792 56.7839 12.0312 56.8359 12.0938C56.8932 12.151 56.9349 12.2188 56.9609 12.2969C56.987 12.3906 56.9974 12.4922 56.9922 12.6016C56.9922 12.7057 56.9922 12.8125 56.9922 12.9219C57.0182 14.3073 57.0365 15.6823 57.0469 17.0469C57.0625 18.4115 57.0703 19.7865 57.0703 21.1719C57.0703 21.3281 57.0703 21.4844 57.0703 21.6406C57.0755 21.7969 57.0859 21.9531 57.1016 22.1094C57.2422 22.1042 57.4141 22.0807 57.6172 22.0391C57.8203 21.9974 58.0234 21.9453 58.2266 21.8828C58.4349 21.8151 58.6302 21.7396 58.8125 21.6562C58.9948 21.5729 59.138 21.4844 59.2422 21.3906C59.2891 21.3438 59.3385 21.2969 59.3906 21.25C59.4427 21.1979 59.5078 21.1719 59.5859 21.1719C59.6536 21.1719 59.724 21.1953 59.7969 21.2422C59.875 21.2891 59.9453 21.349 60.0078 21.4219C60.0703 21.4896 60.1224 21.5625 60.1641 21.6406C60.2057 21.7188 60.2266 21.7917 60.2266 21.8594ZM65.1016 21.875C65.1016 22.026 65.0625 22.1693 64.9844 22.3047C64.9062 22.4349 64.7995 22.5312 64.6641 22.5938C64.6224 22.6146 64.5208 22.6354 64.3594 22.6562C64.1979 22.6719 64.0234 22.6875 63.8359 22.7031C63.6484 22.7188 63.4688 22.7344 63.2969 22.75C63.1302 22.7656 63.013 22.776 62.9453 22.7812C62.9297 22.8698 62.888 22.9323 62.8203 22.9688C62.7526 23 62.6797 23.0156 62.6016 23.0156C62.513 23.0156 62.4115 23.0026 62.2969 22.9766C62.1823 22.9505 62.0807 22.9219 61.9922 22.8906C61.7578 22.9219 61.5208 22.9557 61.2812 22.9922C61.0417 23.0286 60.7995 23.0469 60.5547 23.0469C60.3672 23.0469 60.2734 22.9583 60.2734 22.7812C60.2734 22.6042 60.3229 22.4688 60.4219 22.375C60.5208 22.2812 60.6406 22.2109 60.7812 22.1641C60.9219 22.1172 61.0729 22.0859 61.2344 22.0703C61.3958 22.0547 61.5391 22.0365 61.6641 22.0156C61.638 20.5365 61.6094 19.0677 61.5781 17.6094C61.5521 16.151 61.5391 14.6823 61.5391 13.2031C61.3255 13.2188 61.1172 13.2344 60.9141 13.25C60.7109 13.2604 60.5078 13.2656 60.3047 13.2656C60.263 13.2656 60.2188 13.2656 60.1719 13.2656C60.125 13.2604 60.0807 13.2526 60.0391 13.2422C60.0026 13.2266 59.9714 13.2057 59.9453 13.1797C59.9141 13.1484 59.8984 13.1042 59.8984 13.0469C59.8984 12.9479 59.9193 12.862 59.9609 12.7891C60.0026 12.7109 60.0573 12.6484 60.125 12.6016C60.1979 12.5495 60.276 12.5078 60.3594 12.4766C60.4427 12.4453 60.5286 12.4219 60.6172 12.4062C60.8411 12.3646 61.0677 12.3307 61.2969 12.3047C61.5312 12.2734 61.763 12.2448 61.9922 12.2188C62.2266 12.1875 62.4583 12.1562 62.6875 12.125C62.9219 12.0938 63.1536 12.0521 63.3828 12C63.6016 11.9531 63.8203 11.8932 64.0391 11.8203C64.2578 11.7422 64.4818 11.7031 64.7109 11.7031C64.8359 11.7031 64.9193 11.75 64.9609 11.8438C65.0026 11.9323 65.0234 12.0312 65.0234 12.1406C65.0234 12.2292 65.013 12.3151 64.9922 12.3984C64.9766 12.4766 64.9401 12.5521 64.8828 12.625C64.8516 12.6667 64.7812 12.7083 64.6719 12.75C64.5677 12.7865 64.4401 12.8203 64.2891 12.8516C64.1432 12.8828 63.9844 12.9141 63.8125 12.9453C63.6458 12.9714 63.4818 12.9974 63.3203 13.0234C63.1641 13.0443 63.0208 13.0625 62.8906 13.0781C62.7604 13.0938 62.6641 13.1042 62.6016 13.1094C62.6589 13.8333 62.6979 14.5573 62.7188 15.2812C62.7448 16.0052 62.7656 16.7292 62.7812 17.4531C62.7969 18.1771 62.8125 18.901 62.8281 19.625C62.8438 20.349 62.8724 21.0729 62.9141 21.7969C63.2109 21.75 63.5104 21.7057 63.8125 21.6641C64.1146 21.6172 64.4193 21.5938 64.7266 21.5938C64.8151 21.5938 64.8984 21.6146 64.9766 21.6562C65.0599 21.6927 65.1016 21.7656 65.1016 21.875ZM70.6484 17C70.6484 17.2188 70.6432 17.474 70.6328 17.7656C70.6276 18.0521 70.6094 18.3594 70.5781 18.6875C70.5521 19.0156 70.5104 19.3516 70.4531 19.6953C70.401 20.0391 70.3307 20.375 70.2422 20.7031C70.1536 21.0312 70.0443 21.3411 69.9141 21.6328C69.7839 21.9245 69.6276 22.1797 69.4453 22.3984C69.263 22.6172 69.0521 22.7917 68.8125 22.9219C68.5729 23.0469 68.2995 23.1094 67.9922 23.1094C67.6849 23.1094 67.4062 23.0391 67.1562 22.8984C66.9062 22.7526 66.6953 22.5625 66.5234 22.3281C66.3828 22.1406 66.2578 21.9115 66.1484 21.6406C66.0443 21.3646 65.9505 21.0651 65.8672 20.7422C65.7891 20.4193 65.7214 20.0833 65.6641 19.7344C65.6068 19.3854 65.5599 19.0417 65.5234 18.7031C65.4922 18.3646 65.4688 18.0443 65.4531 17.7422C65.4375 17.4349 65.4297 17.1667 65.4297 16.9375C65.4297 16.5521 65.4453 16.1484 65.4766 15.7266C65.513 15.3047 65.5781 14.888 65.6719 14.4766C65.7656 14.0599 65.8932 13.6589 66.0547 13.2734C66.2161 12.888 66.4245 12.5417 66.6797 12.2344C66.7057 12.2031 66.737 12.1667 66.7734 12.125C66.8151 12.0833 66.8594 12.0443 66.9062 12.0078C66.9531 11.9661 67 11.9323 67.0469 11.9062C67.099 11.875 67.1484 11.8594 67.1953 11.8594C67.2422 11.8594 67.2865 11.8724 67.3281 11.8984C67.375 11.9245 67.4141 11.9583 67.4453 12C67.5547 11.9375 67.6693 11.8932 67.7891 11.8672C67.9141 11.8411 68.0391 11.8281 68.1641 11.8281C68.5443 11.8281 68.8698 11.9193 69.1406 12.1016C69.4167 12.2786 69.6458 12.513 69.8281 12.8047C70.0104 13.0964 70.1562 13.4271 70.2656 13.7969C70.375 14.1667 70.4583 14.5443 70.5156 14.9297C70.5729 15.3151 70.6094 15.6875 70.625 16.0469C70.6406 16.4062 70.6484 16.724 70.6484 17ZM69.4297 17.3438C69.4297 17.2083 69.4245 17.0026 69.4141 16.7266C69.4089 16.4453 69.3906 16.138 69.3594 15.8047C69.3281 15.4661 69.2839 15.1198 69.2266 14.7656C69.1745 14.4115 69.1016 14.0911 69.0078 13.8047C68.9141 13.513 68.7969 13.276 68.6562 13.0938C68.5208 12.9062 68.3568 12.8125 68.1641 12.8125C68.0859 12.8125 68.0156 12.849 67.9531 12.9219C67.8906 12.9948 67.8307 13.0885 67.7734 13.2031C67.7161 13.3177 67.6641 13.4427 67.6172 13.5781C67.5703 13.7135 67.5234 13.8438 67.4766 13.9688C67.4297 14.0938 67.3854 14.2057 67.3438 14.3047C67.3021 14.4036 67.2578 14.474 67.2109 14.5156C67.1953 14.5312 67.1693 14.5417 67.1328 14.5469C67.1016 14.5469 67.0703 14.5469 67.0391 14.5469C66.9505 14.5469 66.8672 14.5312 66.7891 14.5C66.7005 14.8542 66.638 15.2083 66.6016 15.5625C66.5703 15.9115 66.5547 16.2656 66.5547 16.625C66.5547 16.7344 66.5599 16.8984 66.5703 17.1172C66.5807 17.3359 66.5964 17.5859 66.6172 17.8672C66.638 18.1484 66.6667 18.4505 66.7031 18.7734C66.7396 19.0964 66.7839 19.4193 66.8359 19.7422C66.888 20.0599 66.9479 20.3672 67.0156 20.6641C67.0885 20.9557 67.1719 21.2161 67.2656 21.4453C67.3594 21.6693 67.4635 21.849 67.5781 21.9844C67.6927 22.1198 67.8203 22.1875 67.9609 22.1875C68.0391 22.1875 68.1094 22.1667 68.1719 22.125C68.2344 22.0781 68.2943 22.0312 68.3516 21.9844C68.5078 21.8438 68.6432 21.6589 68.7578 21.4297C68.8724 21.2005 68.9688 20.9479 69.0469 20.6719C69.125 20.3958 69.1901 20.1068 69.2422 19.8047C69.2943 19.4974 69.3333 19.1953 69.3594 18.8984C69.3854 18.6016 69.4036 18.3203 69.4141 18.0547C69.4245 17.7839 69.4297 17.5469 69.4297 17.3438Z" fill="white"/>
<path d="M11.9763 10.5H8.50002C6.92867 10.5 6.143 10.5 5.65484 10.9882C5.16669 11.4763 5.16669 12.262 5.16669 13.8333V22.1667C5.16669 23.738 5.16669 24.5237 5.65484 25.0118C6.143 25.5 6.92867 25.5 8.50002 25.5H13.5C15.0714 25.5 15.857 25.5 16.3452 25.0118C16.8334 24.5237 16.8334 23.738 16.8334 22.1667V15.357C16.8334 15.0164 16.8334 14.8461 16.7699 14.6929C16.7065 14.5398 16.5861 14.4194 16.3452 14.1785L13.1548 10.9882C12.914 10.7473 12.7936 10.6269 12.6404 10.5634C12.4873 10.5 12.317 10.5 11.9763 10.5Z" stroke="white" stroke-width="1.5"/>
<path d="M8.5 18.8334L13.5 18.8334" stroke="white" stroke-width="1.5" stroke-linecap="round"/>
<path d="M8.5 22.1666L11.8333 22.1666" stroke="white" stroke-width="1.5" stroke-linecap="round"/>
<path d="M11.8333 10.5V13.8333C11.8333 14.619 11.8333 15.0118 12.0774 15.2559C12.3215 15.5 12.7143 15.5 13.5 15.5H16.8333" stroke="white" stroke-width="1.5"/>
</svg>
